<svg xmlns="http://www.w3.org/2000/svg" xmlns:xlink="http://www.w3.org/1999/xlink" viewBox="0,0,256,256" width="480px" height="480px" fill-rule="nonzero"><g fill="#14b8a6" fill-rule="nonzero" stroke="none" stroke-width="1" stroke-linecap="butt" stroke-linejoin="miter" stroke-miterlimit="10" stroke-dasharray="" stroke-dashoffset="0" font-family="none" font-weight="none" font-size="none" text-anchor="none" style="mix-blend-mode: normal"><g transform="scale(10.66667,10.66667)"><path d="M8,2c-1.64497,0 -3,1.35503 -3,3v11h-3v3c0,1.64497 1.35503,3 3,3h9h1c1.64497,0 3,-1.35503 3,-3v-11h4v-3c0,-1.64497 -1.35503,-3 -3,-3zM19,4c0.56503,0 1,0.43497 1,1v1h-2v-1c0,-0.56503 0.43497,-1 1,-1zM4,18h7.99023l0.00977,1.02539v0.00195c0.00465,0.34255 0.08123,0.66635 0.19336,0.97266h-7.19336c-0.56503,0 -1,-0.43497 -1,-1z"></path></g></g></svg>